<svg width="16" height="16" viewBox="0 0 16 16" fill="none" xmlns="http://www.w3.org/2000/svg">
<path d="M16 2.53902C15.4111 2.80055 14.7785 2.97654 14.1145 3.05592C14.7927 2.64978 15.3126 2.00673 15.5576 1.23999C14.9237 1.61598 14.221 1.8892 13.4727 2.03688C12.874 1.39875 12.0211 1 11.0771 1C9.26426 1 7.79478 2.4701 7.79478 4.28234C7.79478 4.53956 7.82431 4.79062 7.8797 5.03C5.1518 4.89339 2.73343 3.58636 1.1138 1.59998C0.831968 2.08488 0.670128 2.64855 0.670128 3.25099C0.670128 4.38941 1.24918 5.39429 2.12976 5.98258C1.59194 5.96535 1.0855 5.81766 0.643052 5.57213C0.643052 5.58629 0.643052 5.59921 0.643052 5.61336C0.643052 7.20407 1.77409 8.53079 3.27618 8.8317C3.00112 8.90677 2.71066 8.94677 2.41098 8.94677C2.19992 8.94677 1.99377 8.92585 1.79378 8.88831C2.21161 10.1923 3.42387 11.1418 4.86012 11.1682C3.73709 12.0488 2.32176 12.5737 0.783355 12.5737C0.518749 12.5737 0.257221 12.5583 0 12.5276C1.45287 13.4586 3.17772 14.002 5.03181 14.002C11.0697 14.002 14.3705 9.00031 14.3705 4.66263C14.3705 4.52048 14.3674 4.37895 14.3613 4.23803C15.0031 3.77466 15.56 3.19684 16 2.53902Z" fill="black"/>
</svg>
