<svg width="16" height="16" viewBox="0 0 16 16" fill="none" xmlns="http://www.w3.org/2000/svg">
<path d="M15.9138 11.8039C15.2603 10.6279 13.5771 9.21483 12.8822 8.59993C12.692 8.43157 12.6716 8.1403 12.8447 7.95412C14.1709 6.52905 15.2316 4.89161 15.5967 3.90217C15.7578 3.46509 15.4243 3.00327 14.9545 3.00327H13.5898C13.14 3.00327 12.8767 3.16473 12.7513 3.42181C11.6491 5.68033 10.7036 6.65777 10.0418 7.22904C9.67129 7.54903 9.09348 7.28395 9.09348 6.79704C9.09348 5.85887 9.09348 4.64616 9.09348 3.78617C9.09348 3.36909 8.75239 3.03164 8.33167 3.03164L5.83861 3.00327C5.5248 3.00327 5.34552 3.35854 5.53389 3.60763L5.94552 4.19853C6.10042 4.40326 6.18406 4.65234 6.18406 4.90798L6.18188 7.56903C6.18188 8.03194 5.62079 8.25812 5.28771 7.93376C4.16081 6.83632 3.18301 4.59525 2.83101 3.52363C2.72919 3.21345 2.43865 3.004 2.1092 3.00327L0.764855 3C0.260497 3 -0.108226 3.47818 0.0288637 3.95962C1.25721 8.27121 3.77754 12.373 8.26912 12.8177C8.71166 12.8613 9.09348 12.505 9.09348 12.0639V10.6654C9.09348 10.2643 9.40802 9.91955 9.81238 9.90937C9.82656 9.909 9.84074 9.90901 9.85492 9.90901C11.0429 9.90901 12.3734 11.6381 12.8389 12.4468C12.9727 12.6795 13.2229 12.8213 13.4934 12.8213H15.3018C15.8294 12.8213 16.1679 12.2617 15.9138 11.8039Z" fill="black"/>
</svg>
